#N canvas 7 622 450 300 10;
#X obj 150 46 adc~ 1 2;
#X obj 146 179 dac~ 1 2;
#X obj 149 111 moddemod_dc~;
#X obj 268 33 r Knob1 @hv_param;
#X obj 268 64 * 1000;
#X connect 0 0 2 0;
#X connect 0 1 2 1;
#X connect 2 0 1 0;
#X connect 2 1 1 1;
#X connect 3 0 4 0;
#X connect 4 0 2 2;
