#N canvas 1347 1048 892 597 12;
#X obj 112 41 adc~ 1 2;
#X obj 116 287 dac~ 1 2;
#X obj 954 -1;
#X obj 263 40 adc~ 3 4 5 6;
#N canvas 1376 937 1204 844 eurocomb 1;
#X obj 117 -65 inlet~;
#N canvas 1966 777 577 179 delay-writer 1;
#X obj 97 40 inlet~;
#X obj 98 80 delwrite~ delay0 30;
#X connect 0 0 1 0;
#X restore 115 134 pd delay-writer;
#N canvas 2536 777 584 427 delay-reader 1;
#X text 227 11 Controls delay in fractions of 30ms;
#X obj 88 80 inlet~;
#X obj 88 152 delread4~ delay0 30;
#X obj 89 208 outlet~;
#X text 253 153 set size here;
#X connect 1 0 2 0;
#X connect 2 0 3 0;
#X restore 313 130 pd delay-reader;
#X obj 344 -73 inlet~;
#X obj 138 95 r~ a;
#X obj 583 276 s~ a;
#X obj 624 -64 inlet~;
#X obj 583 202 *~;
#X obj 313 250 outlet~;
#X obj 600 166 -~;
#X obj 600 116 sig~ 1;
#X obj 357 168 lop~ 1000;
#X obj 319 2 -~, f 4;
#X obj 318 -34 sig~ 1;
#X obj 315 34 *~;
#X obj 315 65 *~ 10;
#X obj 314 94 +~ 2;
#X text 170 -64 delay input;
#X text 429 110 delay reader has fixed max delay size set internaly
;
#X text 410 -74 variable delaysize input;
#X connect 0 0 1 0;
#X connect 2 0 8 0;
#X connect 2 0 11 0;
#X connect 3 0 12 1;
#X connect 4 0 1 0;
#X connect 6 0 9 1;
#X connect 7 0 5 0;
#X connect 9 0 7 1;
#X connect 10 0 9 0;
#X connect 11 0 7 0;
#X connect 12 0 14 0;
#X connect 12 0 14 1;
#X connect 13 0 12 0;
#X connect 14 0 15 0;
#X connect 15 0 16 0;
#X connect 16 0 2 0;
#X restore 113 143 pd eurocomb;
#X obj 423 95 dac~ 27 28 29 30;
#X obj 113 81 hip~ 20;
#X obj 394 41 r~ osc_1;
#X obj 464 40 r~ osc_2;
#X obj 532 41 r~ osc_3;
#X obj 603 40 r~ osc_4;
#X obj 263 85 *~ 1.2;
#X obj 289 113 *~ 1.2;
#X obj 318 140 *~ 1.2;
#X obj 344 173 *~ 1.2;
#X obj 262 170 s~ cv1;
#X obj 288 195 s~ cv2;
#X obj 319 218 s~ cv3;
#X obj 344 241 s~ cv4;
#X connect 0 0 6 0;
#X connect 3 0 11 0;
#X connect 3 1 12 0;
#X connect 3 2 13 0;
#X connect 3 3 14 0;
#X connect 4 0 1 0;
#X connect 6 0 4 0;
#X connect 7 0 5 0;
#X connect 8 0 5 1;
#X connect 9 0 5 2;
#X connect 10 0 5 3;
#X connect 11 0 15 0;
#X connect 12 0 16 0;
#X connect 13 0 17 0;
#X connect 14 0 18 0;
