#N canvas 857 339 834 673 12;
#X obj 109 69 adc~ 1 2;
#X obj 277 76 adc~ 3 4 5 6;
#X obj 447 70 adc~ 7 8 9 10;
#X obj 116 335 dac~ 1 2, f 10;
#X obj 236 333 dac~ 3 4 5 6;
#X obj 356 332 dac~ 7 8 9 10;
#X obj 432 258 dac~ 27 28 29 30;
#X obj 117 259 osc~ 440;
#X obj 262 258 phasor~ 0.5;
#X connect 0 0 6 0;
#X connect 0 1 6 1;
#X connect 2 0 6 2;
#X connect 2 1 6 3;
#X connect 7 0 3 0;
#X connect 7 0 3 1;
#X connect 8 0 4 0;
#X connect 8 0 4 1;
#X connect 8 0 4 2;
#X connect 8 0 4 3;
#X connect 8 0 5 0;
#X connect 8 0 5 1;
#X connect 8 0 5 2;
#X connect 8 0 5 3;
